# xmcd CD database file
#
# Track frame offsets:
#	150
#	21025
#	40835
#
# Disc length: 800 seconds
#
# Revision: 9
# Processed by: cddbd v1.5.2PL0 Copyright (c) Steve Scherf et al.
# Submitted via: CDex 1.40Beta9
#
DISCID=19031e03
DTITLE=Patty Smyth - No Mistakes
DYEAR=1992
DGENRE=Country
TTITLE0=No Mistakes (Single Version)
TTITLE1=River Of Love
TTITLE2=Drive You Away
EXTD=YEAR: 1992 ID3G: 2
EXTT0=
EXTT1=
EXTT2=
PLAYORDER=
